<?xml version="1.0" encoding="utf-8"?>
<!-- Generator: Adobe Illustrator 24.0.1, SVG Export Plug-In . SVG Version: 6.00 Build 0)  -->
<svg version="1.1" id="Layer_1" xmlns="http://www.w3.org/2000/svg" xmlns:xlink="http://www.w3.org/1999/xlink" x="0px" y="0px"
	 viewBox="0 0 2504.43 1000" style="enable-background:new 0 0 2504.43 1000;" xml:space="preserve">
<g>
	<g>
		<path d="M267.43,263.49H400.7c46.91,0,84.58,13.39,113.01,40.16c28.43,26.78,42.65,62.08,42.65,105.91
			c0,46.2-14.39,82.4-43.18,108.57c-28.79,26.18-68.65,39.27-119.59,39.27h-18.48v180.54H267.43V263.49z M375.11,354.47v111.95
			c24.17-0.47,41.99-5.09,53.49-13.86c11.49-8.76,17.24-22.62,17.24-41.58c0-20.38-5.57-34.77-16.7-43.18
			C417.99,359.39,399.99,354.95,375.11,354.47z"/>
		<path d="M637.74,263.49h107.68v175.92h95.6V263.49h107.68v474.45H841.03V540.69h-95.6v197.24H637.74V263.49z"/>
		<path d="M1204.95,749.66c-57.34,0-101.05-21.97-131.14-65.92c-30.09-43.95-45.14-107.38-45.14-190.31
			c0-76.53,15.1-136.17,45.31-178.94c30.21-42.76,72.32-64.15,126.34-64.15c57.58,0,101.58,21.44,132.02,64.33
			c30.45,42.89,45.67,104.13,45.67,183.74c0,79.61-14.99,141.39-44.96,185.34C1303.09,727.69,1260.39,749.66,1204.95,749.66z
			 M1201.04,358.02c-38.86,0-58.28,45.61-58.28,136.83c0,58.76,4.91,97.97,14.75,117.63c9.83,19.67,24.11,29.5,42.83,29.5
			c20.13,0,35.6-9.83,46.38-29.5c10.78-19.66,16.17-58.16,16.17-115.5C1262.88,404.34,1242.27,358.02,1201.04,358.02z"/>
		<path d="M1457.99,263.49h108.75l136.83,273.65l-3.91-51.18V263.49h107.68v474.45h-110.53l-133.98-269.39l2.84,58.99v210.39
			h-107.68V263.49z"/>
		<path d="M2063.93,749.66c-57.34,0-101.05-21.97-131.14-65.92c-30.09-43.95-45.14-107.38-45.14-190.31
			c0-76.53,15.11-136.17,45.31-178.94c30.21-42.76,72.32-64.15,126.34-64.15c57.58,0,101.58,21.44,132.03,64.33
			c30.44,42.89,45.67,104.13,45.67,183.74c0,79.61-14.99,141.39-44.96,185.34C2162.07,727.69,2119.37,749.66,2063.93,749.66z
			 M2060.02,358.02c-38.86,0-58.28,45.61-58.28,136.83c0,58.76,4.91,97.97,14.75,117.63c9.83,19.67,24.1,29.5,42.82,29.5
			c20.14,0,35.6-9.83,46.38-29.5c10.78-19.66,16.17-58.16,16.17-115.5C2121.86,404.34,2101.25,358.02,2060.02,358.02z"/>
	</g>
	<g>
		<path d="M2504.43,1000H0V0h2504.43V1000z M103.73,896.27H2400.7V103.73H103.73V896.27z"/>
	</g>
</g>
</svg>
